<?xml version="1.0" encoding="UTF-8"?>
<!DOCTYPE svg PUBLIC "-//W3C//DTD SVG 1.1//EN" "http://www.w3.org/Graphics/SVG/1.1/DTD/svg11.dtd">
<!-- Creator: CorelDRAW -->
<svg xmlns="http://www.w3.org/2000/svg" xml:space="preserve" width="1.49999in" height="1.51485in" version="1.1" style="shape-rendering:geometricPrecision; text-rendering:geometricPrecision; image-rendering:optimizeQuality; fill-rule:evenodd; clip-rule:evenodd"
viewBox="0 0 133.58 134.9"
 xmlns:xlink="http://www.w3.org/1999/xlink"
 xmlns:xodm="http://www.corel.com/coreldraw/odm/2003">
 <defs>
  <style type="text/css">
   <![CDATA[
    .fil0 {fill:#10B981;fill-rule:nonzero}
   ]]>
  </style>
 </defs>
 <g id="Layer_x0020_1">
  <metadata id="CorelCorpID_0Corel-Layer"/>
  <path class="fil0" d="M34.87 117.04l-3.16 5.07c-48.21,-28.53 -39.76,-101.14 13.85,-118.69 53.59,-17.54 103.72,35.45 83.39,88.24 -11.35,29.47 -41.97,47.13 -73.14,42.5l3.57 -53.83 -16.49 13.71c-1.37,-1.18 -2.65,-2.46 -3.83,-3.83l15.06 -18.1 -23.45 -2.15c-0.07,-0.89 -0.1,-1.8 -0.1,-2.71 0,-0.91 0.03,-1.81 0.1,-2.71l23.45 -2.15 -15.06 -18.1c1.18,-1.37 2.46,-2.65 3.83,-3.83l18.1 15.06 2.15 -23.45c0.89,-0.07 1.8,-0.1 2.71,-0.1 0.91,0 1.81,0.03 2.71,0.1l2.15 23.45 18.1 -15.06c1.37,1.18 2.65,2.46 3.83,3.83l-15.06 18.1 23.45 2.15c0.07,0.89 0.1,1.8 0.1,2.71 0,0.91 -0.03,1.81 -0.1,2.71l-23.45 2.15 15.06 18.1c-1.18,1.37 -2.46,2.65 -3.83,3.83l-16.49 -13.71 1.74 41.99c39.99,-5.68 62.81,-54.25 35.89,-89.26 -30.63,-39.85 -94.36,-22.29 -100.95,27.61 -1.72,23.01 5.98,43.21 25.84,56.36z"/>
 </g>
</svg>
