<?xml version="1.0" encoding="UTF-8"?>
<!DOCTYPE svg PUBLIC "-//W3C//DTD SVG 1.1//EN" "http://www.w3.org/Graphics/SVG/1.1/DTD/svg11.dtd">
<!-- Creator: CorelDRAW -->
<svg xmlns="http://www.w3.org/2000/svg" xml:space="preserve" width="2.00001in" height="0.474559in" version="1.1" style="shape-rendering:geometricPrecision; text-rendering:geometricPrecision; image-rendering:optimizeQuality; fill-rule:evenodd; clip-rule:evenodd"
viewBox="0 0 244.74 58.07"
 xmlns:xlink="http://www.w3.org/1999/xlink"
 xmlns:xodm="http://www.corel.com/coreldraw/odm/2003">
 <defs>
  <style type="text/css">
   <![CDATA[
    .fil0 {fill:#000A24;fill-rule:nonzero}
    .fil1 {fill:#10B981;fill-rule:nonzero}
   ]]>
  </style>
 </defs>
 <g id="Layer_x0020_1">
  <metadata id="CorelCorpID_0Corel-Layer"/>
  <g id="_2109235904448">
   <path class="fil0" d="M99.8 34.94l0 -22.19 -7.05 0 0 20.85c0,3.11 -0.36,4.77 -1.14,6.07 -1.09,1.71 -3.16,2.75 -5.6,2.75 -2.23,0 -4.3,-0.99 -5.39,-2.49 -0.83,-1.24 -1.35,-3.42 -1.35,-5.86l0 -21.31 -6.95 0 0 23.08c0,3.11 0.42,4.93 1.45,6.85 2.13,3.73 6.59,5.91 12.19,5.91 5.03,0 8.87,-1.61 11.41,-4.82 1.71,-2.13 2.44,-4.87 2.44,-8.82zm2.28 -13.33l0 25.72 6.69 0 0 -13.33c0,-2.49 0.78,-4.1 2.49,-5.19 1.09,-0.83 2.13,-0.93 5.7,-1.19l0 -6.85c-4.67,0.26 -6.9,1.66 -8.4,4.82l-0.16 -3.99 -6.33 0zm38.32 18.31l-6.9 0c-0.78,1.97 -2.28,2.96 -4.62,2.96 -3.21,0 -5.13,-2.07 -5.7,-6.27l17.58 0 0 -1.66c0.16,-9.07 -4.25,-14.05 -12.08,-14.05 -3.47,0 -6.27,1.09 -8.5,3.27 -2.7,2.64 -3.89,5.91 -3.89,10.89 0,4.36 1.24,8.04 3.58,10.16 2.23,2.02 5.6,3.21 9.33,3.21 5.81,0 9.54,-2.85 11.2,-8.5zm-6.59 -7.93l-10.48 0c0.57,-3.47 2.33,-5.34 5.24,-5.34 2.85,0 4.77,1.87 5.24,5.34zm8.76 -19.24l0 34.59 6.69 0 0 -14.62c0,-3.68 2.23,-6.12 5.5,-6.12 1.4,0 2.54,0.47 3.32,1.45 0.57,0.78 0.83,2.28 0.83,4.51l0 14.78 6.85 0 0 -17.48c0,-2.23 -0.26,-3.89 -1.04,-5.08 -1.4,-2.44 -4.2,-3.79 -7.68,-3.79 -3.73,0 -5.96,1.19 -7.78,3.89l0 -12.13 -6.69 0zm49.63 32.98l0 -24.11 -6.48 0 -0.1 3.22c-2.23,-2.75 -4.2,-3.89 -7.57,-3.89 -2.64,0 -5.44,1.14 -7.26,3.06 -2.07,2.23 -3.32,5.81 -3.32,9.9 0,5.19 1.19,8.61 3.73,11.05 1.81,1.66 4.3,2.7 6.74,2.7 3.16,0 5.5,-1.19 7.52,-3.73l0 2.33c0,4.61 -1.66,6.53 -5.6,6.53 -2.59,0 -4.15,-0.88 -4.61,-2.59l-7.36 0c0.16,2.44 0.83,3.73 2.64,5.24 1.92,1.61 5.6,2.64 9.13,2.64 3.84,0 7.83,-1.24 9.85,-3.16 1.92,-1.71 2.7,-4.25 2.7,-9.18zm-12.45 -18.98c3.68,0 5.96,2.96 5.96,7.52 0,4.56 -2.44,7.57 -6.17,7.57 -3.16,0 -4.98,-2.85 -4.98,-7.99 0,-4.3 2.07,-7.1 5.19,-7.1zm30.34 17.48l0.47 3.11 7.68 0 0 -0.83c-0.78,-0.57 -0.99,-0.93 -1.14,-1.56 -0.26,-0.88 -0.41,-1.82 -0.41,-2.7l0 -13.28c0,-1.87 -0.31,-3.27 -0.93,-4.25 -1.61,-2.28 -4.93,-3.68 -9.13,-3.68 -4.51,0 -7.47,0.93 -9.49,2.96 -1.61,1.61 -2.18,3.16 -2.33,5.91l6.43 0c0.21,-2.39 1.82,-3.58 4.77,-3.58 2.44,0 4.1,1.35 3.94,3.06 -0.05,0.67 -0.42,1.24 -1.14,1.66 -0.83,0.41 -1.45,0.52 -4.36,0.93 -3.94,0.57 -6.27,1.14 -7.57,2.13 -1.87,1.24 -2.96,3.68 -2.96,6.43 0,4.77 3.11,7.62 8.14,7.62 3.47,0 6.43,-1.5 8.04,-3.94l0 0zm-0.26 -8.87l0 1.87c0,1.45 -0.21,2.64 -0.67,3.42 -0.78,1.4 -2.75,2.44 -4.67,2.44 -2.44,0 -3.63,-1.04 -3.63,-3.11 0,-2.02 1.04,-2.8 4.56,-3.58 1.04,-0.21 2.07,-0.47 4.41,-1.04zm9.75 -22.61l0 34.59 6.48 0 0.1 -3.21c2.07,2.96 4.2,4.15 7.73,4.15 2.75,0 5.55,-1.14 7.42,-3.16 2.23,-2.28 3.42,-5.96 3.42,-10.27 0,-5.24 -1.19,-8.76 -3.84,-11.2 -1.81,-1.71 -4.46,-2.75 -6.9,-2.75 -3.32,0 -5.6,1.24 -7.73,3.79l0 -11.93 -6.69 0zm12.6 13.95c3.53,0 5.44,2.96 5.44,8.14 0,4.62 -2.07,7.62 -5.39,7.62 -3.73,0 -6.02,-3.01 -6.02,-7.99 0,-4.77 2.28,-7.78 5.96,-7.78z"/>
   <path class="fil1" d="M15.01 50.38l-1.36 2.18c-20.75,-12.28 -17.12,-43.54 5.96,-51.09 23.07,-7.55 44.65,15.26 35.9,37.99 -4.89,12.68 -18.07,20.29 -31.48,18.3l1.54 -23.17 -7.1 5.9c-0.59,-0.51 -1.14,-1.06 -1.65,-1.65l6.48 -7.79 -10.09 -0.93c-0.03,-0.38 -0.04,-0.77 -0.04,-1.17 0,-0.39 0.01,-0.78 0.04,-1.17l10.09 -0.93 -6.48 -7.79c0.51,-0.59 1.06,-1.14 1.65,-1.65l7.79 6.48 0.93 -10.09c0.38,-0.03 0.77,-0.04 1.17,-0.04 0.39,0 0.78,0.01 1.17,0.04l0.93 10.09 7.79 -6.48c0.59,0.51 1.14,1.06 1.65,1.65l-6.48 7.79 10.09 0.93c0.03,0.38 0.04,0.77 0.04,1.17 0,0.39 -0.01,0.78 -0.04,1.17l-10.09 0.93 6.48 7.79c-0.51,0.59 -1.06,1.14 -1.65,1.65l-7.1 -5.9 0.75 18.08c17.21,-2.44 27.04,-23.35 15.45,-38.43 -13.19,-17.15 -40.62,-9.59 -43.46,11.89 -0.74,9.9 2.57,18.6 11.12,24.26z"/>
  </g>
 </g>
</svg>
