<svg width="143" height="30" viewBox="0 0 143 30" fill="none" xmlns="http://www.w3.org/2000/svg">
<path d="M12.1306 26.0804L10.2606 22.1817H7.18603C6.83473 22.1817 6.49399 22.0576 6.22458 21.8278L6.08722 21.7089C5.75706 21.4263 5.56688 21.0143 5.56688 20.5811C5.56688 20.2905 5.6514 20.0053 5.81252 19.7623L13.7234 7.81806H7.67732L0.638112 17.599C0.297377 18.0744 0.0834278 18.6265 0.0200353 19.2076C-0.0459985 19.8151 0.0517316 20.4279 0.305301 20.9852L1.7105 24.0597C1.96935 24.6276 2.37876 25.1136 2.89119 25.4676C3.46964 25.8664 4.15375 26.0804 4.85635 26.0804H12.1333H12.1306Z" fill="#4E08B7"/>
<path d="M11.8136 3.91962L13.6837 7.81826H16.7583C17.1096 7.81826 17.4503 7.9424 17.7197 8.1722L17.8571 8.29106C18.1872 8.57369 18.3774 8.98574 18.3774 9.41892C18.3774 9.70947 18.2929 9.99473 18.1318 10.2377L10.2235 22.1819H16.2696L23.3088 12.401C23.6495 11.9256 23.8635 11.3735 23.9269 10.7924C23.9929 10.1849 23.8952 9.57212 23.6416 9.01479L22.2364 5.94026C21.9776 5.37236 21.5682 4.88636 21.0557 4.53241C20.4773 4.13357 19.7932 3.91962 19.0906 3.91962L11.8136 3.91962Z" fill="#4E08B7"/>
<path d="M41.127 20.257L40.5459 23.5772H28.747L31.8981 5.65035H36.09L33.5464 20.2597H41.1297L41.127 20.257Z" fill="#4E08B7" stroke="#4E08B7" stroke-width="0.0713166" stroke-miterlimit="10"/>
<path d="M55.57 11.2936L53.4146 23.5759H49.3918L50.1684 19.1913H50.1209C49.5873 22.0994 47.9153 23.8189 45.5909 23.8189C43.4356 23.8189 42.2708 22.4877 42.2708 20.1844C42.2708 19.7248 42.3183 19.215 42.3923 18.6577L43.6997 11.2936H47.7463L46.4626 18.4649C46.415 18.7554 46.3886 18.9245 46.3886 19.0935C46.3886 20.1104 46.9222 20.6678 47.8651 20.6678C49.1488 20.6678 50.0707 19.6271 50.385 17.8811L51.5472 11.291H55.57V11.2936Z" fill="#4E08B7" stroke="#4E08B7" stroke-width="0.0713166" stroke-miterlimit="10"/>
<path d="M77.06 14.612C77.06 15.0716 77.0124 15.5576 76.9385 16.0647L75.6072 23.5741H71.5844L72.8919 16.2575C72.9157 16.0647 72.9394 15.8693 72.9394 15.7002C72.9394 14.7308 72.4059 14.1973 71.4629 14.1973C70.1555 14.1973 69.2336 15.1904 68.9431 16.8624L67.7571 23.5741H63.7343L65.0418 16.2575C65.0656 16.0647 65.0894 15.8693 65.0894 15.7002C65.0894 14.7308 64.5558 14.1973 63.5864 14.1973C62.3027 14.1973 61.3809 15.1904 61.0666 16.8624L59.9044 23.5741H55.8816L58.0369 11.2918H62.0597L61.2858 15.6527H61.3333C61.8431 12.7709 63.5864 11.0488 66.0085 11.0488C68.0926 11.0488 69.2548 12.2849 69.2548 14.3927C69.2548 14.781 69.231 15.2168 69.1333 15.6527H69.1808C69.7144 12.7709 71.3863 11.0488 73.7107 11.0488C75.8661 11.0488 77.0547 12.3325 77.0547 14.6093L77.06 14.612Z" fill="#4E08B7" stroke="#4E08B7" stroke-width="0.0713166" stroke-miterlimit="10"/>
<path d="M80.0976 11.294H84.1204L81.965 23.5762H77.9422L80.0976 11.294ZM81.0432 5.86597H85.066L84.5086 9.20992H80.4859L81.0432 5.86597Z" fill="#4E08B7" stroke="#4E08B7" stroke-width="0.0713166" stroke-miterlimit="10"/>
<path d="M97.9478 14.7324C97.9478 15.192 97.9003 15.678 97.8026 16.1851L96.5189 23.573H92.4961L93.7798 16.378C93.8036 16.1851 93.8273 15.9897 93.8273 15.7969C93.8273 14.7799 93.27 14.1988 92.2293 14.1988C90.8717 14.1988 89.8785 15.2395 89.5642 16.9855L88.4258 23.5756H84.403L86.5583 11.2934H90.5811L89.8072 15.678H89.8547C90.3645 12.7699 92.1078 11.0503 94.4824 11.0503C96.857 11.0503 97.9478 12.3816 97.9478 14.7324Z" fill="#4E08B7" stroke="#4E08B7" stroke-width="0.0713166" stroke-miterlimit="10"/>
<path d="M113.133 15.8238C113.133 20.5227 110.735 23.8191 107.1 23.8191C104.823 23.8191 103.563 22.583 103.563 20.4276C103.563 20.0394 103.611 19.6537 103.661 19.2417H103.614L101.87 29.1494H97.8475L100.996 11.2938H105.019L104.245 15.6309H104.292C104.802 12.7492 106.691 11.0535 109.38 11.0535C111.802 11.0535 113.136 12.847 113.136 15.8264L113.133 15.8238ZM108.917 16.6716C108.917 15.1212 108.191 14.2257 106.857 14.2257C105.259 14.2257 104.071 15.6072 103.756 17.4244C103.682 17.7889 103.682 17.9817 103.682 18.2723C103.682 19.6775 104.385 20.6706 105.719 20.6706C107.657 20.6706 108.917 19.0224 108.917 16.6743V16.6716Z" fill="#4E08B7" stroke="#4E08B7" stroke-width="0.0713166" stroke-miterlimit="10"/>
<path d="M128.487 11.2944L126.332 23.5767H122.309L123.083 19.2396H123.035C122.526 22.0976 120.637 23.8171 117.948 23.8171C115.55 23.8171 114.192 22.0236 114.192 19.0442C114.192 14.3452 116.59 11.0488 120.201 11.0488C122.502 11.0488 123.762 12.2849 123.762 14.4403C123.762 14.8286 123.714 15.2168 123.64 15.6262H123.688L124.464 11.2891H128.487V11.2944ZM123.569 17.425C123.64 17.0869 123.667 16.8439 123.667 16.5771C123.667 15.1719 122.94 14.2026 121.606 14.2026C119.668 14.2026 118.408 15.827 118.408 18.1989C118.408 19.7494 119.134 20.6448 120.468 20.6448C122.066 20.6448 123.255 19.2634 123.569 17.4224V17.425Z" fill="#4E08B7" stroke="#4E08B7" stroke-width="0.0713166" stroke-miterlimit="10"/>
<path d="M142.838 11.2941L135.714 29.1496H131.427L133.68 23.5764H130.41L129.829 11.2941H134.116L134.214 23.3096H134.261L138.548 11.2941H142.835H142.838Z" fill="#4E08B7" stroke="#4E08B7" stroke-width="0.0713166" stroke-miterlimit="10"/>
</svg>
